<svg width="24" height="24" viewBox="0 0 24 24" fill="none" xmlns="http://www.w3.org/2000/svg">
  <g clip-path="url(#a)">
    <path d="M0 0h24v24H0z"/>
    <path d="M9.273 22.436c0-.368-.013-1.581-.013-3.085 0-1.051.342-1.737.73-2.087-2.441-.287-5.009-1.253-5.009-5.576 0-1.231.43-2.238 1.132-3.026C6 8.377 5.62 7.23 6.222 5.677c0 0 .923-.304 3.024 1.155a10.22 10.22 0 0 1 5.509 0c2.1-1.459 3.022-1.155 3.022-1.155.6 1.553.223 2.7.11 2.985.703.788 1.129 1.794 1.129 3.026 0 4.333-2.571 5.287-5.024 5.566.397.35.748 1.037.748 2.09 0 1.508-.013 2.723-.013 3.092 0 .303.198.652.756.544C19.852 21.487 23 17.26 23 12.28 23 6.05 18.074 1 11.998 1 5.925 1 1 6.049 1 12.28c0 4.982 3.151 9.21 7.526 10.7.547.105.747-.243.747-.544Z" stroke="#fff" stroke-width="1.24" stroke-miterlimit="10" stroke-linecap="round" stroke-linejoin="round"/>
    <path d="M4.274 17.064c1.007.31 1.404.65 1.877 1.454.473.805 1.027 1.704 3.11 1.192" stroke="#fff" stroke-width="1.24" stroke-miterlimit="10" stroke-linecap="round" stroke-linejoin="round"/>
  </g>
  <defs>
    <clipPath id="a">
      <path fill="#fff" d="M0 0h24v24H0z"/>
    </clipPath>
  </defs>
</svg>
